<?xml version="1.0" encoding="UTF-8" standalone="no"?>
<svg width="37px" height="76px" viewBox="0 0 37 76" version="1.1" xmlns="http://www.w3.org/2000/svg" xmlns:xlink="http://www.w3.org/1999/xlink">
    <!-- Generator: Sketch 3.7 (28169) - http://www.bohemiancoding.com/sketch -->
    <title>Combined Shape</title>
    <desc>Created with Sketch.</desc>
    <defs></defs>
    <g id="Page-1" stroke="none" stroke-width="1" fill="none" fill-rule="evenodd">
        <g id="3.-REVIEW" transform="translate(-1594.000000, -836.000000)" fill="#FFFFFF">
            <g id="Group-6" transform="translate(1528.000000, 790.000000)">
                <g id="Group-2">
                    <g id="Group-5">
                        <g id="Group-3" transform="translate(66.000000, 46.000000)">
                            <path d="M28,4.99809247 L28,70.5294037 C28,73.0146851 30.0147186,75.0294037 32.5,75.0294037 C34.9852814,75.0294037 37,73.0146851 37,70.5294037 L37,4.99809247 C37,2.5128111 34.9852814,0.498092473 32.5,0.498092473 C30.0147186,0.498092473 28,2.5128111 28,4.99809247 Z M0,4.99809247 L0,70.5294037 C0,73.0146851 2.01471863,75.0294037 4.5,75.0294037 C6.98528137,75.0294037 9,73.0146851 9,70.5294037 L9,4.99809247 C9,2.5128111 6.98528137,0.498092473 4.5,0.498092473 C2.01471863,0.498092473 0,2.5128111 0,4.99809247 Z" id="Combined-Shape"></path>
                        </g>
                    </g>
                </g>
            </g>
        </g>
    </g>
</svg>