<?xml version="1.0" encoding="UTF-8" standalone="no"?>
<svg width="54px" height="59px" viewBox="0 0 54 59" version="1.1" xmlns="http://www.w3.org/2000/svg" xmlns:xlink="http://www.w3.org/1999/xlink">
    <!-- Generator: Sketch 3.7 (28169) - http://www.bohemiancoding.com/sketch -->
    <title>Shape</title>
    <desc>Created with Sketch.</desc>
    <defs></defs>
    <g id="Page-1" stroke="none" stroke-width="1" fill="none" fill-rule="evenodd">
        <g id="3.-REVIEW" transform="translate(-109.000000, -918.000000)" fill="#FFFFFF">
            <g id="Group-4" transform="translate(50.000000, 867.000000)">
                <g id="arrows" transform="translate(61.000000, 53.000000)">
                    <path d="M1.54695872,34.3127019 C1.55622984,34.364403 1.51929829,34.4168862 1.47548219,34.4250245 C1.41799182,34.4356092 1.36607755,34.4002669 1.35399662,34.335224 C2.37542018,39.8572153 5.30647026,44.7980588 9.60678153,48.3681029 C13.8448199,51.8886189 19.2102111,53.8518296 24.8673908,53.8518296 C31.3031215,53.8518296 37.3392589,51.3046428 41.7977551,46.8461466 C46.2469898,42.3969119 48.8034381,36.3577862 48.8034381,29.9357787 C48.8034381,23.5173232 46.2499734,17.4796261 41.800366,13.0080317 C37.3235434,8.5531961 31.2858463,5.99973139 24.8673908,5.99973139 C23.4641526,5.99973139 22.1489399,6.11010584 20.8711959,6.34110296 C19.9453804,6.49155252 19.0607332,6.68626115 18.2182334,6.93215205 L15.4429196,7.74215146 L17.7032162,9.54479525 L21.036379,12.2030769 C21.0015436,12.1762947 20.9939213,12.1115478 21.038046,12.0564209 C21.0662613,12.0196691 21.1465976,12.0107389 21.2050282,12.0593491 L15.7248337,7.69484191 C15.7723769,7.73314035 15.7817708,7.77719844 15.7638893,7.81425018 L18.5451352,1.4338172 C18.5180505,1.49366499 18.4606935,1.51631658 18.4050188,1.49155063 C18.3645867,1.47515185 18.3368488,1.40310036 18.3577769,1.35605328 L16.7654707,5.01822404 L15.5002442,7.92824509 L18.5520147,7.05892514 C19.3085795,6.84341195 20.0798374,6.67561047 20.9158782,6.54284863 C22.2192126,6.31685541 23.5418762,6.20397393 24.866141,6.20397393 C31.2442165,6.20397393 37.2211532,8.72651822 41.6609071,13.1469004 C46.0760767,17.5814392 48.5979458,23.5582412 48.5979458,29.9370285 C48.5979458,36.3172513 46.0736629,42.2943992 41.6585856,46.7094766 C37.2140389,51.1358332 31.2340059,53.6688333 24.866141,53.6688333 C19.2647132,53.6688333 13.9587306,51.7139654 9.73827699,48.2029638 C5.49332821,44.6790345 2.57359947,39.7623737 1.5445835,34.2997822 L1.54695872,34.3127019 Z M-1.40356473,34.8551398 C-0.244443892,41.0084006 3.04257989,46.5435658 7.82087111,50.5102462 C12.5741297,54.4644902 18.5572482,56.6688333 24.866141,56.6688333 C32.0374302,56.6688333 38.7754723,53.8147586 43.7777293,48.8329691 C48.7524159,43.8582869 51.5979458,37.1204712 51.5979458,29.9370285 C51.5979458,22.7564361 48.756076,16.0212359 43.7822224,11.0255851 C38.781421,6.0465832 32.0461198,3.20397393 24.866141,3.20397393 C23.3707259,3.20397393 21.8764716,3.33149966 20.4241862,3.58349438 C19.4938086,3.73108099 18.6054767,3.92435408 17.7301369,4.17370127 L18.1410758,5.6163132 L19.5166809,6.21440237 L21.1039013,2.56379552 C21.7564928,1.09687999 21.0878703,-0.639917631 19.5917671,-1.2635123 C18.1591203,-1.90126026 16.465125,-1.23226353 15.8056261,0.211363946 L13.0378443,6.56312925 C12.479792,7.71686558 12.792678,9.18432372 13.848898,10.035949 L19.3112874,14.3858733 C20.5350905,15.4044424 22.4000144,15.1971379 23.3950817,13.9121691 C24.3821369,12.6793077 24.1645901,10.8313731 22.8900566,9.84438675 L19.5737601,7.19936016 L18.6384882,8.37207771 L19.058743,9.81200336 C19.7771888,9.60231871 20.5430827,9.43374739 21.379012,9.29769438 C22.5005563,9.09516956 23.6377895,8.99973139 24.8673908,8.99973139 C30.4832457,8.99973139 35.763171,11.232719 39.6790521,15.1293456 C43.5704505,19.0399985 45.8034381,24.3199238 45.8034381,29.9357787 C45.8034381,35.5536267 43.5688555,40.8324055 39.6764348,44.7248262 C35.7755795,48.6256815 30.5002163,50.8518296 24.8673908,50.8518296 C19.9149023,50.8518296 15.2265421,49.1363463 11.5233892,46.0601569 C7.75889102,42.9349354 5.19669401,38.6158641 4.30375224,33.7884694 C4.01221486,32.2188507 2.49614881,31.186738 0.930003283,31.4750335 C-0.639509533,31.7665496 -1.68982045,33.2591387 -1.40593994,34.8422201 L-1.40356473,34.8551398 Z" id="Shape"></path>
                </g>
            </g>
        </g>
    </g>
</svg>